<?xml version="1.0" standalone="no"?><svg xmlns="http://www.w3.org/2000/svg" viewBox="0 0 1440 320"><path fill="#0099ff" fill-opacity="1" d="M0,128L30,154.7C60,181,120,235,180,266.7C240,299,300,309,360,277.3C420,245,480,171,540,128C600,85,660,75,720,85.3C780,96,840,128,900,149.3C960,171,1020,181,1080,197.3C1140,213,1200,235,1260,245.3C1320,256,1380,256,1410,256L1440,256L1440,0L1410,0C1380,0,1320,0,1260,0C1200,0,1140,0,1080,0C1020,0,960,0,900,0C840,0,780,0,720,0C660,0,600,0,540,0C480,0,420,0,360,0C300,0,240,0,180,0C120,0,60,0,30,0L0,0Z"></path></svg>